# xmcd
#
# Track frame offsets:
# 151
# 17316
# 32844
# 46244
# 65226
# 76917
# 96864
# 111338
# 124813
# 146276
# 164138
# 171957
# 188216
# 201975
# 216550
# 230848
#
# Disc length: 3273 seconds
#
#
# Revision: 0
# Processed by: cddbd v1.4PL0 Copyright (c) Steve Scherf et al.
# Submitted via: FreeRIP 2.51 
#
DISCID=ef0cc710
DTITLE=Lee Cave Berry - Sprint Forward
DYEAR=2003
DGENRE=R&B
TTITLE0=It makes me happy
TTITLE1=What about me?
TTITLE2=If I cna be with you
TTITLE3=Return to you
TTITLE4=Have you fallen out of love?
TTITLE5=Guilty
TTITLE6=Roll on Friday
TTITLE7=Yours truly
TTITLE8=Fire dance
TTITLE9=Untrustworthy
TTITLE10=Monthy blues
TTITLE11=English Gentleman
TTITLE12=You're not worth my love
TTITLE13=Wasn't Tuesday
TTITLE14=Want someone
TTITLE15=So small
EXTD=
EXTT0=
EXTT1=
EXTT2=
EXTT3=
EXTT4=
EXTT5=
EXTT6=
EXTT7=
EXTT8=
EXTT9=
EXTT10=
EXTT11=
EXTT12=
EXTT13=
EXTT14=
EXTT15=
PLAYORDER=
